# xmcd CD database file
# Copyright (C) 1993-1998 Ti Kan
#
# Track frame offsets:
# 150
# 20919
# 41467
# 59858
# 74729
# 92781
# 111009
# 133922
# 147617
# 163627
# 178716
# 199161
#
# Disc length: 2749 seconds
#
# Revision: 0
# Processed by: cddbd v1.4b41PL1 Copyright (c) Steve Scherf et al.
# Submitted via: inCDius 1.1
#
DISCID=c30abb0c
DTITLE=Thousand $ Car - Big Shot
DYEAR=1900
DGENRE=
TTITLE0=What A Way To Live
TTITLE1=Eyes Up
TTITLE2=Securtity Guard
TTITLE3=Take A Little For Yourself
TTITLE4=All Because Of You
TTITLE5=Ramblin'
TTITLE6=Cut Out Romeo
TTITLE7=24-7-365
TTITLE8=Take Me With You
TTITLE9=Miles Away
TTITLE10=I Want to Know
TTITLE11=Bonus Track
EXTD=
EXTT0=
EXTT1=
EXTT2=
EXTT3=
EXTT4=
EXTT5=
EXTT6=
EXTT7=
EXTT8=
EXTT9=
EXTT10=
EXTT11=
PLAYORDER=
